<svg width="1067" height="1067" viewBox="0 0 1067 1067" fill="none" xmlns="http://www.w3.org/2000/svg">
<rect x="12.5" y="1054.5" width="1042" height="1042" transform="rotate(-90 12.5 1054.5)" stroke="white" stroke-width="25"/>
<path d="M865.339 185.057C861.377 188.905 861.377 195.143 865.339 198.99C869.301 202.838 875.725 202.838 879.687 198.99L865.339 185.057ZM933.146 143C933.146 137.559 928.603 133.148 923 133.148H831.687C826.083 133.148 821.541 137.559 821.541 143C821.541 148.441 826.083 152.852 831.687 152.852H912.854V231.667C912.854 237.108 917.396 241.519 923 241.519C928.603 241.519 933.146 237.108 933.146 231.667V143ZM879.687 198.99L930.174 149.966L915.826 136.034L865.339 185.057L879.687 198.99Z" fill="#F80000"/>
<path d="M879.687 869.044C875.725 865.197 869.301 865.197 865.339 869.044C861.377 872.892 861.377 879.13 865.339 882.977L879.687 869.044ZM923 934.887C928.603 934.887 933.146 930.476 933.146 925.035V836.367C933.146 830.926 928.603 826.515 923 826.515C917.396 826.515 912.854 830.926 912.854 836.367V915.183H831.687C826.083 915.183 821.541 919.594 821.541 925.035C821.541 930.476 826.083 934.887 831.687 934.887H923ZM865.339 882.977L915.826 932.001L930.174 918.068L879.687 869.044L865.339 882.977Z" fill="#F80000"/>
<path d="M202.661 185.057C206.623 188.905 206.623 195.143 202.661 198.99C198.699 202.838 192.275 202.838 188.312 198.99L202.661 185.057ZM134.854 143C134.854 137.559 139.396 133.148 145 133.148H236.313C241.917 133.148 246.459 137.559 246.459 143C246.459 148.441 241.917 152.852 236.313 152.852H155.146V231.667C155.146 237.108 150.603 241.519 145 241.519C139.396 241.519 134.854 237.108 134.854 231.667V143ZM188.312 198.99L137.826 149.966L152.174 136.034L202.661 185.057L188.312 198.99Z" fill="#F80000"/>
<path d="M188.312 869.044C192.275 865.197 198.699 865.197 202.661 869.044C206.623 872.892 206.623 879.13 202.661 882.977L188.312 869.044ZM145 934.887C139.396 934.887 134.854 930.476 134.854 925.035V836.367C134.854 830.926 139.396 826.515 145 826.515C150.603 826.515 155.146 830.926 155.146 836.367V915.183H236.313C241.917 915.183 246.459 919.594 246.459 925.035C246.459 930.476 241.917 934.887 236.313 934.887H145ZM202.661 882.977L152.174 932.001L137.826 918.068L188.312 869.044L202.661 882.977Z" fill="#F80000"/>
</svg>
